<?xml version="1.0" encoding="UTF-8"?>
<!DOCTYPE svg PUBLIC "-//W3C//DTD SVG 1.1//EN" "http://www.w3.org/Graphics/SVG/1.1/DTD/svg11.dtd">
<svg version="1.1" xmlns="http://www.w3.org/2000/svg" xmlns:xlink="http://www.w3.org/1999/xlink" x="0" y="0" width="612" height="792" viewBox="0, 0, 612, 792">
  <g id="Layer_1">
    <path d="M37.167,42.5 L91.641,42.5" fill-opacity="0" stroke="#000000" stroke-width="2" stroke-linecap="round" stroke-linejoin="round" id="path7119"/>
    <path d="M91.641,30.5 L91.641,54.5" fill-opacity="0" stroke="#000000" stroke-width="2" stroke-linecap="round" stroke-linejoin="round" id="path7994"/>
    <path d="M91.641,30.5 L111.641,42.5" fill-opacity="0" stroke="#000000" stroke-width="2" stroke-linecap="round" stroke-linejoin="round" id="path7996"/>
    <path d="M91.641,54.5 L111.641,42.5" fill-opacity="0" stroke="#000000" stroke-width="2" stroke-linecap="round" stroke-linejoin="round" id="path7998"/>
    <path d="M111.641,30.5 L111.641,54.5" fill-opacity="0" stroke="#000000" stroke-width="2" stroke-linecap="round" stroke-linejoin="round" id="path8000"/>
    <path d="M111.641,42.5 L190.833,42.5" fill-opacity="0" stroke="#000000" stroke-width="2" stroke-linecap="round" stroke-linejoin="round" id="path8002"/>
    <path d="M111.641,22.5 L106.641,32.5" fill-opacity="0" stroke="#000000" stroke-width="2" stroke-linecap="round" stroke-linejoin="round" id="path1323"/>
    <path d="M104.641,19.5 L99.641,29.5" fill-opacity="0" stroke="#000000" stroke-width="2" stroke-linecap="round" stroke-linejoin="round" id="path1325"/>
    <path d="M111.641,22.5 L112.641,25.5" fill-opacity="0" stroke="#000000" stroke-width="2" stroke-linecap="round" stroke-linejoin="round" id="path1331"/>
    <path d="M111.641,22.5 L108.641,23.5" fill-opacity="0" stroke="#000000" stroke-width="2" stroke-linecap="round" stroke-linejoin="round" id="path1333"/>
    <path d="M104.641,19.5 L105.641,22.5" fill-opacity="0" stroke="#000000" stroke-width="2" stroke-linecap="round" stroke-linejoin="round" id="path1335"/>
    <path d="M104.641,19.5 L101.641,20.5" fill-opacity="0" stroke="#000000" stroke-width="2" stroke-linecap="round" stroke-linejoin="round" id="path1337"/>
    <text transform="matrix(1, 0, 0, 1, 69.318, 32.379)" id="tspan8006">
      <tspan x="-12.945" y="2.5" font-family=".LucidaGrandeUI" font-size="8" fill="#000000">Anode</tspan>
    </text>
    <text transform="matrix(1, 0, 0, 1, 140.346, 34.379)" id="tspan8010">
      <tspan x="-16.654" y="2.5" font-family=".LucidaGrandeUI" font-size="8" fill="#000000">Cathode</tspan>
    </text>
    <path d="M190.833,42.5 L190.833,122.167" fill-opacity="0" stroke="#000000" stroke-width="2" stroke-linecap="round" stroke-linejoin="round" id="path8000"/>
    <g>
      <path d="M184.333,54.712 L197.333,54.712 L197.333,95.5 L184.333,95.5 L184.333,54.712 z" fill="#FFFFFF"/>
      <path d="M184.333,54.712 L197.333,54.712 L197.333,95.5 L184.333,95.5 L184.333,54.712 z" fill-opacity="0" stroke="#000000" stroke-width="1"/>
    </g>
    <path d="M200.746,118.667 L190.333,136.701 L179.921,118.667 z" fill="#000000"/>
  </g>
</svg>
